<svg xmlns="http://www.w3.org/2000/svg" xmlns:xlink="http://www.w3.org/1999/xlink" width="83" height="83.403" viewBox="0 0 83 83.403">
  <defs>
    <linearGradient id="linear-gradient" x1="0.5" y1="1" x2="0.5" gradientUnits="objectBoundingBox">
      <stop offset="0" stop-color="#12c2e9"/>
      <stop offset="0.5" stop-color="#c471ed"/>
      <stop offset="1" stop-color="#f64f59"/>
    </linearGradient>
  </defs>
  <path id="cocktail" d="M71,71c.761,0,1,.239,1,1s-.239,2-1,2-1-1.239-1-2S70.239,71,71,71ZM99,92v5a2.681,2.681,0,0,1-2,2H17c-.761,0-1-1.239-1-2V92c0-.761.239-2,1-2H29l16-7V56L18,27c-.367-.4-1.221-1.5-1-2a2.93,2.93,0,0,1,2-1h4l-5-6a1.414,1.414,0,0,1,2-2l7,8H74c.545,0,.779.5,1,1s.367,1.6,0,2L48,56V82l15,8h5c-4.251-2.744-7-6.882-7-12,0-.761,1.239-1,2-1h3a18.2,18.2,0,0,1,0-2c0-3.8,1.963-7,5-7,.71,0,1.367.678,2,1a12.5,12.5,0,0,1,0-2,6.464,6.464,0,0,1,2-4c1.25-1.25,3.419-1.774,5-2,1.7-.243,2.922-.078,4,1s2.243,2.3,2,4a9.538,9.538,0,0,1-1,3,7.188,7.188,0,0,1,4,2c1.508,1.508,2,4.189,2,6h2c.761,0,1,.239,1,1,0,5.118-2.749,9.256-7,12H97A2.68,2.68,0,0,1,99,92ZM87,73a4.925,4.925,0,0,0-3-1c-.487-.069-1.371-.616-2,0a1.414,1.414,0,1,1,0,2,1.449,1.449,0,0,1,0-2,3.087,3.087,0,0,0-1,2,8.046,8.046,0,0,0,1,3h6C88.006,75.922,87.987,73.987,87,73Zm-8,0c-.22.026-.779,0-1,0a7.222,7.222,0,0,1-2,0c.21.745,1,1.226,1,2,0,.461-.926,1.545-1,2h3c-.267-.6.1-1.354,0-2A9.6,9.6,0,0,1,79,73Zm-3-3c.629.629,1.509.07,2,0a4.925,4.925,0,0,0,3-1,6.728,6.728,0,0,0,2-3,3.026,3.026,0,0,0-1-2,1.414,1.414,0,1,1-2,0,1.478,1.478,0,0,1,2,0c-.409-.314-.485-1.017-1-1-.161,0-.841-.023-1,0a6.73,6.73,0,0,0-3,2,4.924,4.924,0,0,0-1,3C75.93,68.491,75.371,69.371,76,70Zm-8,7h6a12.2,12.2,0,0,0,0-2c0-2.239-1.507-4-3-4s-3,1.761-3,4A12.2,12.2,0,0,0,68,77ZM78,90c7.076,0,13.236-4.812,14-11H64C64.764,85.188,70.924,90,78,90ZM29,27l3,3H59c.761,0,1,.239,1,1s-.239,2-1,2H34l5,4c2.079-.835,4.175.175,6,2a6.293,6.293,0,0,1,2,4c.076,1.021.485,2.1,0,3v1a1.414,1.414,0,0,1-2,2V48a7.022,7.022,0,0,1-3,1c-.127,0,.128.008,0,0-.049,0-.952,0-1,0l5,5L66,33H64c-.761,0-1-1.239-1-2s.239-1,1-1h4l3-3ZM44,43a2.793,2.793,0,0,0-1-2h0a2.445,2.445,0,0,0-2-1c-.663-.014-1.524-.463-2,0a2.869,2.869,0,0,0-1,2,5.045,5.045,0,0,0,4,4,2.753,2.753,0,0,0,2-1C44.519,44.481,44.082,43.73,44,43Zm-7-4-6-6H27l9,9A5.037,5.037,0,0,1,37,39ZM22,27l2,3h4l-2-3ZM36,90H57L47,85Zm60,3H19v3H96Z" transform="translate(-16 -15.597)" fill="url(#linear-gradient)"/>
</svg>
